<?xml version="1.0" encoding="iso-8859-1"?>
<!-- Generator: Adobe Illustrator 19.0.0, SVG Export Plug-In . SVG Version: 6.00 Build 0)  -->
<svg version="1.1" id="Layer_1" xmlns="http://www.w3.org/2000/svg" xmlns:xlink="http://www.w3.org/1999/xlink" x="0px" y="0px"
	 viewBox="0 0 512 512" style="enable-background:new 0 0 512 512;" xml:space="preserve">
<g>
	<g>
		<path d="M256.001,0c-24.813,0-45,20.187-45,45v181c0,24.813,20.187,45,45,45c24.813,0,45-20.187,45-45V45
			C301.001,20.187,280.814,0,256.001,0z M271.001,226c0,8.271-6.729,15-15,15s-15-6.729-15-15V45c0-8.271,6.729-15,15-15
			s15,6.729,15,15V226z"/>
	</g>
</g>
<g>
	<g>
		<path d="M406.583,118.944c-13.582-12.253-32.359-15.268-48.995-7.869c-28.962,12.877-36.811,51.464-10.877,75.037
			c31.345,28.495,48.03,70.571,43.573,113.888c-7.119,69.195-66.4,123.611-138.283,121.865
			c-67.978-1.651-118.332-53.647-128.688-110.542c-8.513-46.756,7.173-93.557,41.958-125.192
			c25.86-23.518,18.226-62.177-10.724-75.016c-16.764-7.434-35.708-4.324-49.444,8.115C50.03,169.106,21.685,244.591,33.749,321
			c17.154,108.649,110.954,191.002,222.32,191c119.355-0.004,217.374-94.868,224.504-212
			C484.896,228.982,456.031,163.557,406.583,118.944z M450.56,299C444.242,399.332,360.251,481.457,257,482
			c-97.822,0.515-177.963-71.752-193.346-164c-10.982-65.847,12.725-132.283,61.588-176.533c5.22-4.727,11.725-5.329,17.144-2.928
			c9.234,4.095,12.491,16.497,2.702,25.397c-41.623,37.853-61.88,94.593-51.29,152.76c13.188,72.435,76.881,135.025,161.205,135.215
			c86.037,0.195,157.671-65.89,165.326-150.911c4.723-52.461-15.85-102.918-53.439-137.087c-9.781-8.891-6.49-21.256,2.887-25.425
			c2.151-0.956,9.711-3.584,16.711,2.731C430.934,181.32,454.31,239.452,450.56,299z"/>
	</g>
</g>
<g>
</g>
<g>
</g>
<g>
</g>
<g>
</g>
<g>
</g>
<g>
</g>
<g>
</g>
<g>
</g>
<g>
</g>
<g>
</g>
<g>
</g>
<g>
</g>
<g>
</g>
<g>
</g>
<g>
</g>
</svg>
