<?xml version="1.0" encoding="iso-8859-1"?>
<!-- Generator: Adobe Illustrator 18.0.0, SVG Export Plug-In . SVG Version: 6.00 Build 0)  -->
<!DOCTYPE svg PUBLIC "-//W3C//DTD SVG 1.1//EN" "http://www.w3.org/Graphics/SVG/1.1/DTD/svg11.dtd">
<svg version="1.1" id="Capa_1" xmlns="http://www.w3.org/2000/svg" xmlns:xlink="http://www.w3.org/1999/xlink" x="0px" y="0px"
	 viewBox="0 0 512 512" style="enable-background:new 0 0 512 512;" xml:space="preserve">
<g>
	<path d="M256,225.882c-33.272,0-60.235,26.963-60.235,60.235c0,33.272,26.963,60.235,60.235,60.235
		c33.265,0,60.235-26.963,60.235-60.235C316.235,252.846,289.265,225.882,256,225.882z"/>
	<path d="M481.882,120H437v-14.596C437,88.772,423.221,75,406.588,75h-90.353C299.603,75,286,88.772,286,105.404V120H30.118
		C13.485,120,0,133.949,0,150.581v256C0,423.213,13.485,437,30.118,437h451.765c7.985,0,15.647-3.323,21.294-8.971
		c5.647-5.647,8.823-13.456,8.823-21.441V150.581C512,133.949,498.515,120,481.882,120z M120,196H45v-30h75V196z M256,376.471
		c-49.904,0-90.353-40.449-90.353-90.353c0-49.904,40.449-90.353,90.353-90.353c49.897,0,90.353,40.449,90.353,90.353
		C346.353,336.022,305.897,376.471,256,376.471z M421.647,225.882c-16.632,0-30.118-13.485-30.118-30.118
		c0-16.632,13.485-30.118,30.118-30.118c16.632,0,30.118,13.485,30.118,30.118C451.765,212.397,438.279,225.882,421.647,225.882z"/>
</g>
<g>
</g>
<g>
</g>
<g>
</g>
<g>
</g>
<g>
</g>
<g>
</g>
<g>
</g>
<g>
</g>
<g>
</g>
<g>
</g>
<g>
</g>
<g>
</g>
<g>
</g>
<g>
</g>
<g>
</g>
</svg>
